<svg xmlns="http://www.w3.org/2000/svg" xmlns:xlink="http://www.w3.org/1999/xlink" version="1.1" width="1113px" height="1183px" viewBox="-0.5 -0.5 1113 1183"><defs><clipPath id="mx-clip-20-807-152-26-0"><rect x="20" y="807" width="152" height="26"/></clipPath><clipPath id="mx-clip-20-833-152-26-0"><rect x="20" y="833" width="152" height="26"/></clipPath><clipPath id="mx-clip-20-747-152-26-0"><rect x="20" y="747" width="152" height="26"/></clipPath><clipPath id="mx-clip-20-781-152-80-0"><rect x="20" y="781" width="152" height="80"/></clipPath><clipPath id="mx-clip-20-861-152-26-0"><rect x="20" y="861" width="152" height="26"/></clipPath><clipPath id="mx-clip-20-993-152-26-0"><rect x="20" y="993" width="152" height="26"/></clipPath><clipPath id="mx-clip-20-1027-152-30-0"><rect x="20" y="1027" width="152" height="30"/></clipPath><clipPath id="mx-clip-20-1057-152-50-0"><rect x="20" y="1057" width="152" height="50"/></clipPath><clipPath id="mx-clip-20-1081-152-26-0"><rect x="20" y="1081" width="152" height="26"/></clipPath><clipPath id="mx-clip-470-637-272-26-0"><rect x="470" y="637" width="272" height="26"/></clipPath><clipPath id="mx-clip-470-671-272-26-0"><rect x="470" y="671" width="272" height="26"/></clipPath><clipPath id="mx-clip-470-697-272-26-0"><rect x="470" y="697" width="272" height="26"/></clipPath><clipPath id="mx-clip-470-723-272-26-0"><rect x="470" y="723" width="272" height="26"/></clipPath><clipPath id="mx-clip-470-749-272-26-0"><rect x="470" y="749" width="272" height="26"/></clipPath><clipPath id="mx-clip-470-775-272-26-0"><rect x="470" y="775" width="272" height="26"/></clipPath><clipPath id="mx-clip-470-801-272-26-0"><rect x="470" y="801" width="272" height="26"/></clipPath><clipPath id="mx-clip-470-827-272-26-0"><rect x="470" y="827" width="272" height="26"/></clipPath><clipPath id="mx-clip-470-853-272-26-0"><rect x="470" y="853" width="272" height="26"/></clipPath><clipPath id="mx-clip-470-879-272-26-0"><rect x="470" y="879" width="272" height="26"/></clipPath><clipPath id="mx-clip-470-905-272-26-0"><rect x="470" y="905" width="272" height="26"/></clipPath><clipPath id="mx-clip-470-931-272-26-0"><rect x="470" y="931" width="272" height="26"/></clipPath><clipPath id="mx-clip-470-1063-272-26-0"><rect x="470" y="1063" width="272" height="26"/></clipPath><clipPath id="mx-clip-470-1097-272-26-0"><rect x="470" y="1097" width="272" height="26"/></clipPath><clipPath id="mx-clip-820-903-272-26-0"><rect x="820" y="903" width="272" height="26"/></clipPath><clipPath id="mx-clip-820-937-272-26-0"><rect x="820" y="937" width="272" height="26"/></clipPath><clipPath id="mx-clip-820-963-272-26-0"><rect x="820" y="963" width="272" height="26"/></clipPath><clipPath id="mx-clip-820-1063-272-26-0"><rect x="820" y="1063" width="272" height="26"/></clipPath><clipPath id="mx-clip-820-1097-272-26-0"><rect x="820" y="1097" width="272" height="26"/></clipPath><clipPath id="mx-clip-820-47-272-26-0"><rect x="820" y="47" width="272" height="26"/></clipPath><clipPath id="mx-clip-820-81-272-26-0"><rect x="820" y="81" width="272" height="26"/></clipPath><clipPath id="mx-clip-820-107-272-26-0"><rect x="820" y="107" width="272" height="26"/></clipPath><clipPath id="mx-clip-820-133-272-26-0"><rect x="820" y="133" width="272" height="26"/></clipPath><clipPath id="mx-clip-820-159-272-26-0"><rect x="820" y="159" width="272" height="26"/></clipPath><clipPath id="mx-clip-820-185-272-26-0"><rect x="820" y="185" width="272" height="26"/></clipPath><clipPath id="mx-clip-820-211-272-26-0"><rect x="820" y="211" width="272" height="26"/></clipPath><clipPath id="mx-clip-820-237-272-26-0"><rect x="820" y="237" width="272" height="26"/></clipPath><clipPath id="mx-clip-820-263-272-26-0"><rect x="820" y="263" width="272" height="26"/></clipPath><clipPath id="mx-clip-820-289-272-26-0"><rect x="820" y="289" width="272" height="26"/></clipPath><clipPath id="mx-clip-820-315-272-26-0"><rect x="820" y="315" width="272" height="26"/></clipPath><clipPath id="mx-clip-820-341-272-26-0"><rect x="820" y="341" width="272" height="26"/></clipPath><clipPath id="mx-clip-820-367-272-24-0"><rect x="820" y="367" width="272" height="24"/></clipPath><clipPath id="mx-clip-820-467-272-26-0"><rect x="820" y="467" width="272" height="26"/></clipPath><clipPath id="mx-clip-820-501-272-26-0"><rect x="820" y="501" width="272" height="26"/></clipPath><clipPath id="mx-clip-820-527-272-26-0"><rect x="820" y="527" width="272" height="26"/></clipPath><clipPath id="mx-clip-818-647-272-26-0"><rect x="818" y="647" width="272" height="26"/></clipPath><clipPath id="mx-clip-818-681-272-26-0"><rect x="818" y="681" width="272" height="26"/></clipPath><clipPath id="mx-clip-818-707-272-26-0"><rect x="818" y="707" width="272" height="26"/></clipPath><clipPath id="mx-clip-818-733-272-26-0"><rect x="818" y="733" width="272" height="26"/></clipPath><clipPath id="mx-clip-818-759-272-26-0"><rect x="818" y="759" width="272" height="26"/></clipPath><clipPath id="mx-clip-818-785-272-26-0"><rect x="818" y="785" width="272" height="26"/></clipPath><clipPath id="mx-clip-818-811-272-26-0"><rect x="818" y="811" width="272" height="26"/></clipPath></defs><g><rect x="16" y="802" width="160" height="26" fill="none" stroke="none" pointer-events="all"/><g fill="#000000" font-family="Helvetica" clip-path="url(#mx-clip-20-807-152-26-0)" font-size="12px"><text x="21.5" y="819.5">+ method: stop()</text></g><rect x="16" y="828" width="160" height="26" fill="none" stroke="none" pointer-events="all"/><g fill="#000000" font-family="Helvetica" clip-path="url(#mx-clip-20-833-152-26-0)" font-size="12px"><text x="21.5" y="845.5">+ method: activeApp()</text></g><path d="M 16 742 L 16 716 L 176 716 L 176 742" fill="#ffffff" stroke="#000000" stroke-miterlimit="10" pointer-events="all"/><path d="M 16 742 L 16 882 L 176 882 L 176 742" fill="none" stroke="#000000" stroke-miterlimit="10" pointer-events="none"/><path d="M 16 742 L 176 742" fill="none" stroke="#000000" stroke-miterlimit="10" pointer-events="none"/><g fill="#000000" font-family="Helvetica" font-weight="bold" text-anchor="middle" font-size="12px"><text x="95.5" y="733.5">Framework</text></g><g fill="#000000" font-family="Helvetica" clip-path="url(#mx-clip-20-747-152-26-0)" font-size="12px"><text x="21.5" y="759.5">+ field: </text></g><path d="M 16 772 L 176 772" fill="none" stroke="#000000" stroke-miterlimit="10" pointer-events="none"/><g fill="#000000" font-family="Helvetica" clip-path="url(#mx-clip-20-781-152-80-0)" font-size="12px"><text x="21.5" y="793.5">+ method: run()</text></g><g fill="#000000" font-family="Helvetica" clip-path="url(#mx-clip-20-861-152-26-0)" font-size="12px"><text x="21.5" y="873.5">+ method: setEventListener()</text></g><path d="M 96 962 L 96 922 L 94.1 922 L 94.08 888.37" fill="none" stroke="#000000" stroke-miterlimit="10" pointer-events="none"/><path d="M 94.08 883.12 L 97.58 890.12 L 94.08 888.37 L 90.58 890.12 Z" fill="#000000" stroke="#000000" stroke-miterlimit="10" pointer-events="none"/><path d="M 16 988 L 16 962 L 176 962 L 176 988" fill="#ffffff" stroke="#000000" stroke-miterlimit="10" pointer-events="none"/><path d="M 16 988 L 16 1102 L 176 1102 L 176 988" fill="none" stroke="#000000" stroke-miterlimit="10" pointer-events="none"/><path d="M 16 988 L 176 988" fill="none" stroke="#000000" stroke-miterlimit="10" pointer-events="none"/><g fill="#000000" font-family="Helvetica" font-weight="bold" text-anchor="middle" font-size="12px"><text x="95.5" y="979.5">FrameworkEx</text></g><g fill="#000000" font-family="Helvetica" clip-path="url(#mx-clip-20-993-152-26-0)" font-size="12px"><text x="21.5" y="1005.5">+ field: activeApps</text></g><path d="M 16 1018 L 176 1018" fill="none" stroke="#000000" stroke-miterlimit="10" pointer-events="none"/><g fill="#000000" font-family="Helvetica" clip-path="url(#mx-clip-20-1027-152-30-0)" font-size="12px"><text x="21.5" y="1039.5">+ method: hideApp()</text></g><g fill="#000000" font-family="Helvetica" clip-path="url(#mx-clip-20-1057-152-50-0)" font-size="12px"><text x="21.5" y="1069.5">+ method: showApp()</text></g><g fill="#000000" font-family="Helvetica" clip-path="url(#mx-clip-20-1081-152-26-0)" font-size="12px"><text x="21.5" y="1093.5">+ method: destroyApp()</text></g><path d="M 466 632 L 466 606 L 746 606 L 746 632" fill="#ffffff" stroke="#000000" stroke-miterlimit="10" pointer-events="none"/><path d="M 466 632 L 466 952 L 746 952 L 746 632" fill="none" stroke="#000000" stroke-miterlimit="10" pointer-events="none"/><path d="M 466 632 L 746 632" fill="none" stroke="#000000" stroke-miterlimit="10" pointer-events="none"/><g fill="#000000" font-family="Helvetica" font-weight="bold" text-anchor="middle" font-size="12px"><text x="605.5" y="623.5">IApplication</text></g><g fill="#000000" font-family="Helvetica" clip-path="url(#mx-clip-470-637-272-26-0)" font-size="12px"><text x="471.5" y="649.5">+ field: type</text></g><path d="M 466 662 L 746 662" fill="none" stroke="#000000" stroke-miterlimit="10" pointer-events="none"/><g fill="#000000" font-family="Helvetica" clip-path="url(#mx-clip-470-671-272-26-0)" font-size="12px"><text x="471.5" y="683.5">+ method: init()</text></g><g fill="#000000" font-family="Helvetica" clip-path="url(#mx-clip-470-697-272-26-0)" font-size="12px"><text x="471.5" y="709.5">+ method: run()</text></g><g fill="#000000" font-family="Helvetica" clip-path="url(#mx-clip-470-723-272-26-0)" font-size="12px"><text x="471.5" y="735.5">+ method: show()</text></g><g fill="#000000" font-family="Helvetica" clip-path="url(#mx-clip-470-749-272-26-0)" font-size="12px"><text x="471.5" y="761.5">+ method: stop()</text></g><g fill="#000000" font-family="Helvetica" clip-path="url(#mx-clip-470-775-272-26-0)" font-size="12px"><text x="471.5" y="787.5">+ method: hide()</text></g><g fill="#000000" font-family="Helvetica" clip-path="url(#mx-clip-470-801-272-26-0)" font-size="12px"><text x="471.5" y="813.5">+ method: destroy()</text></g><g fill="#000000" font-family="Helvetica" clip-path="url(#mx-clip-470-827-272-26-0)" font-size="12px"><text x="471.5" y="839.5">+ method: runtime()</text></g><g fill="#000000" font-family="Helvetica" clip-path="url(#mx-clip-470-853-272-26-0)" font-size="12px"><text x="471.5" y="865.5">+ method: page()</text></g><g fill="#000000" font-family="Helvetica" clip-path="url(#mx-clip-470-879-272-26-0)" font-size="12px"><text x="471.5" y="891.5">+ method: callHook()</text></g><g fill="#000000" font-family="Helvetica" clip-path="url(#mx-clip-470-905-272-26-0)" font-size="12px"><text x="471.5" y="917.5">+ method: route()</text></g><g fill="#000000" font-family="Helvetica" clip-path="url(#mx-clip-470-931-272-26-0)" font-size="12px"><text x="471.5" y="943.5">+ method: destroyPage()</text></g><path d="M 608.95 1032 L 603.1 1032 L 603.07 959.36" fill="none" stroke="#000000" stroke-miterlimit="10" pointer-events="none"/><path d="M 603.07 954.11 L 606.57 961.1 L 603.07 959.36 L 599.57 961.11 Z" fill="#000000" stroke="#000000" stroke-miterlimit="10" pointer-events="none"/><path d="M 466 1058 L 466 1032 L 746 1032 L 746 1058" fill="#ffffff" stroke="#000000" stroke-miterlimit="10" pointer-events="none"/><path d="M 466 1058 L 466 1118 L 746 1118 L 746 1058" fill="none" stroke="#000000" stroke-miterlimit="10" pointer-events="none"/><path d="M 466 1058 L 746 1058" fill="none" stroke="#000000" stroke-miterlimit="10" pointer-events="none"/><g fill="#000000" font-family="Helvetica" font-weight="bold" text-anchor="middle" font-size="12px"><text x="605.5" y="1049.5">Application</text></g><g fill="#000000" font-family="Helvetica" clip-path="url(#mx-clip-470-1063-272-26-0)" font-size="12px"><text x="471.5" y="1075.5">+ field: Page</text></g><path d="M 466 1088 L 746 1088" fill="none" stroke="#000000" stroke-miterlimit="10" pointer-events="none"/><g fill="#000000" font-family="Helvetica" clip-path="url(#mx-clip-470-1097-272-26-0)" font-size="12px"><text x="471.5" y="1109.5">+ method: ....</text></g><path d="M 956 436 L 954 436 L 954.03 394.22" fill="none" stroke="#000000" stroke-miterlimit="10" pointer-events="none"/><path d="M 954.04 388.97 L 957.53 395.97 L 954.03 394.22 L 950.53 395.96 Z" fill="#000000" stroke="#000000" stroke-miterlimit="10" pointer-events="none"/><path d="M 956 872 L 956 846 L 956 838.37" fill="none" stroke="#000000" stroke-miterlimit="10" pointer-events="none"/><path d="M 956 833.12 L 959.5 840.12 L 956 838.37 L 952.5 840.12 Z" fill="#000000" stroke="#000000" stroke-miterlimit="10" pointer-events="none"/><path d="M 816 898 L 816 872 L 1096 872 L 1096 898" fill="#ffffff" stroke="#000000" stroke-miterlimit="10" pointer-events="none"/><path d="M 816 898 L 816 984 L 1096 984 L 1096 898" fill="none" stroke="#000000" stroke-miterlimit="10" pointer-events="none"/><path d="M 816 898 L 1096 898" fill="none" stroke="#000000" stroke-miterlimit="10" pointer-events="none"/><g fill="#000000" font-family="Helvetica" font-weight="bold" text-anchor="middle" font-size="12px"><text x="955.5" y="889.5">DomComponent</text></g><g fill="#000000" font-family="Helvetica" clip-path="url(#mx-clip-820-903-272-26-0)" font-size="12px"><text x="821.5" y="915.5">+ field: skipInit_</text></g><path d="M 816 928 L 1096 928" fill="none" stroke="#000000" stroke-miterlimit="10" pointer-events="none"/><g fill="#000000" font-family="Helvetica" clip-path="url(#mx-clip-820-937-272-26-0)" font-size="12px"><text x="821.5" y="949.5">+ method: build()</text></g><g fill="#000000" font-family="Helvetica" clip-path="url(#mx-clip-820-963-272-26-0)" font-size="12px"><text x="821.5" y="975.5">+ method: render()</text></g><path d="M 956 1032 L 956 1008 L 958 1008 L 958 993.37" fill="none" stroke="#000000" stroke-miterlimit="10" pointer-events="none"/><path d="M 958 988.12 L 961.5 995.12 L 958 993.37 L 954.5 995.12 Z" fill="#000000" stroke="#000000" stroke-miterlimit="10" pointer-events="none"/><path d="M 816 1058 L 816 1032 L 1096 1032 L 1096 1058" fill="#ffffff" stroke="#000000" stroke-miterlimit="10" pointer-events="none"/><path d="M 816 1058 L 816 1118 L 1096 1118 L 1096 1058" fill="none" stroke="#000000" stroke-miterlimit="10" pointer-events="none"/><path d="M 816 1058 L 1096 1058" fill="none" stroke="#000000" stroke-miterlimit="10" pointer-events="none"/><g fill="#000000" font-family="Helvetica" font-weight="bold" text-anchor="middle" font-size="12px"><text x="955.5" y="1049.5">Page</text></g><g fill="#000000" font-family="Helvetica" clip-path="url(#mx-clip-820-1063-272-26-0)" font-size="12px"><text x="821.5" y="1075.5">+ field: ...</text></g><path d="M 816 1088 L 1096 1088" fill="none" stroke="#000000" stroke-miterlimit="10" pointer-events="none"/><g fill="#000000" font-family="Helvetica" clip-path="url(#mx-clip-820-1097-272-26-0)" font-size="12px"><text x="821.5" y="1109.5">+ method: ....</text></g><path d="M 816 42 L 816 16 L 1096 16 L 1096 42" fill="#ffffff" stroke="#000000" stroke-miterlimit="10" pointer-events="none"/><path d="M 816 42 L 816 386 L 1096 386 L 1096 42" fill="none" stroke="#000000" stroke-miterlimit="10" pointer-events="none"/><path d="M 816 42 L 1096 42" fill="none" stroke="#000000" stroke-miterlimit="10" pointer-events="none"/><g fill="#000000" font-family="Helvetica" font-weight="bold" text-anchor="middle" font-size="12px"><text x="955.5" y="33.5">DomEntity</text></g><g fill="#000000" font-family="Helvetica" clip-path="url(#mx-clip-820-47-272-26-0)" font-size="12px"><text x="821.5" y="59.5">+ field: uid</text></g><path d="M 816 72 L 1096 72" fill="none" stroke="#000000" stroke-miterlimit="10" pointer-events="none"/><g fill="#000000" font-family="Helvetica" clip-path="url(#mx-clip-820-81-272-26-0)" font-size="12px"><text x="821.5" y="93.5">+ method: mapWidgetTree()</text></g><g fill="#000000" font-family="Helvetica" clip-path="url(#mx-clip-820-107-272-26-0)" font-size="12px"><text x="821.5" y="119.5">+ method: unmapWidgetTree()</text></g><g fill="#000000" font-family="Helvetica" clip-path="url(#mx-clip-820-133-272-26-0)" font-size="12px"><text x="821.5" y="145.5">+ method: parent()</text></g><g fill="#000000" font-family="Helvetica" clip-path="url(#mx-clip-820-159-272-26-0)" font-size="12px"><text x="821.5" y="171.5">+ method: hasChild()</text></g><g fill="#000000" font-family="Helvetica" clip-path="url(#mx-clip-820-185-272-26-0)" font-size="12px"><text x="821.5" y="197.5">+ method:widget()</text></g><g fill="#000000" font-family="Helvetica" clip-path="url(#mx-clip-820-211-272-26-0)" font-size="12px"><text x="821.5" y="223.5">+ method:destroyWidget()</text></g><g fill="#000000" font-family="Helvetica" clip-path="url(#mx-clip-820-237-272-26-0)" font-size="12px"><text x="821.5" y="249.5">+ method:destroyWidget()</text></g><g fill="#000000" font-family="Helvetica" clip-path="url(#mx-clip-820-263-272-26-0)" font-size="12px"><text x="821.5" y="275.5">+ method:domain()</text></g><g fill="#000000" font-family="Helvetica" clip-path="url(#mx-clip-820-289-272-26-0)" font-size="12px"><text x="821.5" y="301.5">+ method:addEffect()</text></g><g fill="#000000" font-family="Helvetica" clip-path="url(#mx-clip-820-315-272-26-0)" font-size="12px"><text x="821.5" y="327.5">+ method:stopEffect()</text></g><g fill="#000000" font-family="Helvetica" clip-path="url(#mx-clip-820-341-272-26-0)" font-size="12px"><text x="821.5" y="353.5">+ method:clearEffects()</text></g><g fill="#000000" font-family="Helvetica" clip-path="url(#mx-clip-820-367-272-24-0)" font-size="12px"><text x="821.5" y="379.5">+ method:children()</text></g><path d="M 816 462 L 816 436 L 1096 436 L 1096 462" fill="#ffffff" stroke="#000000" stroke-miterlimit="10" pointer-events="none"/><path d="M 816 462 L 816 548 L 1096 548 L 1096 462" fill="none" stroke="#000000" stroke-miterlimit="10" pointer-events="none"/><path d="M 816 462 L 1096 462" fill="none" stroke="#000000" stroke-miterlimit="10" pointer-events="none"/><g fill="#000000" font-family="Helvetica" font-weight="bold" text-anchor="middle" font-size="12px"><text x="955.5" y="453.5">DomDynamicEntity</text></g><g fill="#000000" font-family="Helvetica" clip-path="url(#mx-clip-820-467-272-26-0)" font-size="12px"><text x="821.5" y="479.5">+ field: render_func_</text></g><path d="M 816 492 L 1096 492" fill="none" stroke="#000000" stroke-miterlimit="10" pointer-events="none"/><g fill="#000000" font-family="Helvetica" clip-path="url(#mx-clip-820-501-272-26-0)" font-size="12px"><text x="821.5" y="513.5">+ method: setRenderFunction()</text></g><g fill="#000000" font-family="Helvetica" clip-path="url(#mx-clip-820-527-272-26-0)" font-size="12px"><text x="821.5" y="539.5">+ method: build()</text></g><path d="M 957 616 L 957 576 L 954 576 L 954 554.37" fill="none" stroke="#000000" stroke-miterlimit="10" pointer-events="none"/><path d="M 954 549.12 L 957.5 556.12 L 954 554.37 L 950.5 556.12 Z" fill="#000000" stroke="#000000" stroke-miterlimit="10" pointer-events="none"/><path d="M 814 642 L 814 616 L 1094 616 L 1094 642" fill="#ffffff" stroke="#000000" stroke-miterlimit="10" pointer-events="none"/><path d="M 814 642 L 814 832 L 1094 832 L 1094 642" fill="none" stroke="#000000" stroke-miterlimit="10" pointer-events="none"/><path d="M 814 642 L 1094 642" fill="none" stroke="#000000" stroke-miterlimit="10" pointer-events="none"/><g fill="#000000" font-family="Helvetica" font-weight="bold" text-anchor="middle" font-size="12px"><text x="953.5" y="633.5">DomDocument</text></g><g fill="#000000" font-family="Helvetica" clip-path="url(#mx-clip-818-647-272-26-0)" font-size="12px"><text x="819.5" y="659.5">+ field: Page</text></g><path d="M 814 672 L 1094 672" fill="none" stroke="#000000" stroke-miterlimit="10" pointer-events="none"/><g fill="#000000" font-family="Helvetica" clip-path="url(#mx-clip-818-681-272-26-0)" font-size="12px"><text x="819.5" y="693.5">+ method: setRootEntity()</text></g><g fill="#000000" font-family="Helvetica" clip-path="url(#mx-clip-818-707-272-26-0)" font-size="12px"><text x="819.5" y="719.5">+ method:clearRootEntity()</text></g><g fill="#000000" font-family="Helvetica" clip-path="url(#mx-clip-818-733-272-26-0)" font-size="12px"><text x="819.5" y="745.5">+ method:findEntity()</text></g><g fill="#000000" font-family="Helvetica" clip-path="url(#mx-clip-818-759-272-26-0)" font-size="12px"><text x="819.5" y="771.5">+ method:mapWidgetTree()</text></g><g fill="#000000" font-family="Helvetica" clip-path="url(#mx-clip-818-785-272-26-0)" font-size="12px"><text x="819.5" y="797.5">+ method:unmapWidgetTree()</text></g><g fill="#000000" font-family="Helvetica" clip-path="url(#mx-clip-818-811-272-26-0)" font-size="12px"><text x="819.5" y="823.5">+ method:clearWidget()</text></g><path d="M 466 1071 L 201.26 1007.1" fill="none" stroke="#000000" stroke-miterlimit="10" pointer-events="none"/><path d="M 176.96 1001.23 L 190.83 997.02 L 201.26 1007.1 L 187.38 1011.31 Z" fill="none" stroke="#000000" stroke-miterlimit="10" pointer-events="none"/><path d="M 816 1071 L 771.99 1071" fill="none" stroke="#000000" stroke-miterlimit="10" pointer-events="none"/><path d="M 746.99 1071 L 759.49 1063.65 L 771.99 1071 L 759.49 1078.35 Z" fill="none" stroke="#000000" stroke-miterlimit="10" pointer-events="none"/></g></svg>